<?xml version="1.0" encoding="utf-8"?>
<!-- Generator: Adobe Illustrator 28.2.0, SVG Export Plug-In . SVG Version: 6.00 Build 0)  -->
<svg version="1.1" id="Layer_1" xmlns="http://www.w3.org/2000/svg" xmlns:xlink="http://www.w3.org/1999/xlink" x="0px" y="0px"
	 viewBox="0 0 20 20" style="enable-background:new 0 0 20 20;" xml:space="preserve">
<g>
	<g>
		<path fill="#FFFFFF" d="M3.7,15.3c0,0.2-0.1,0.4-0.1,0.5c0,0.4,0.2,0.6,0.5,0.8C4.5,16.9,5,17,5.4,17c2.2,0.1,4.3-0.5,6.2-1.7
			c0.2-0.1,0.4-0.3,0.6-0.5c0.1-0.1,0.1-0.2,0.1-0.3c-0.1-0.4-0.2-0.9-0.3-1.3c-0.1-0.2-0.2-0.3-0.4-0.5c-0.5-0.3-1-0.6-1.5-1
			c-0.1,0-0.2-0.1-0.1-0.2c0-0.1,0.1-0.1,0.2-0.1c1.3-0.3,2.7-0.6,4-0.9c1.7-0.4,3.4-0.7,5.1-1.1c0.1,0,0.2-0.1,0.3,0
			c0.1,0.1,0,0.2-0.1,0.3c-0.8,1.4-1.6,2.8-2.4,4.3c-0.2,0.3-0.2,0.3-0.5,0.1C16,14,16.2,14,15.8,14.4c-0.1,0.2-0.3,0.4-0.4,0.6
			c-0.1,0.1-0.2,0.1-0.3,0c-0.2-0.1-0.4-0.3-0.6-0.4c-0.1-0.1-0.2-0.1-0.3,0C12.7,16,11,17,9,17.5c-0.5,0.1-1,0.3-1.5,0.3
			c0.5,0.1,2.4-0.2,3.6-0.7c1.2-0.4,2.2-1,3.2-1.9c-0.1,0.2-0.2,0.4-0.4,0.6c-1,1.1-2.4,1.8-3.8,2.2c-1,0.3-1.9,0.4-2.9,0.4
			c-0.9,0-1.8-0.1-2.6-0.5c-0.4-0.2-0.8-0.5-1.1-0.9C3.1,16.5,3.2,15.7,3.7,15.3C3.7,15.3,3.7,15.3,3.7,15.3z"/>
		<path fill="#FFFFFF" d="M11.3,4.4c0.4,0.3,0.7,0.7,0.8,1.3C12.2,6.4,12,7,11.5,7.6c-0.5,0.6-1.3,1.1-2,1.5C9.2,9.3,8.8,9.5,8.4,9.8
			c-0.8,0.7-0.9,1.6-0.2,2.4c0,0,0.1,0.1,0.1,0.2c-0.1,0-0.2-0.1-0.3-0.1c-1-0.5-1.3-1.6-0.9-2.6c0.2-0.5,0.6-0.9,1.1-1.3
			c0.6-0.5,1.4-0.8,2-1.3c0.3-0.2,0.6-0.5,0.9-0.9c0.3-0.5,0.4-1,0.1-1.6C11.3,4.6,11.3,4.6,11.3,4.4C11.2,4.5,11.2,4.5,11.3,4.4z"
			/>
		<path fill="#FFFFFF" d="M10.4,13c-1-0.1-2.1-1-1.8-2.1c0.1-0.4,0.4-0.8,0.7-1c0.5-0.4,1.2-0.7,1.8-1c0.3-0.2,0.6-0.4,0.9-0.7
			c0.3-0.4,0.5-0.8,0.4-1.2c0.1,0,0.2,0.1,0.2,0.2c0.4,0.7,0.3,1.5-0.3,2.1c-0.5,0.5-1.1,0.9-1.7,1.3c-0.3,0.2-0.7,0.5-0.9,0.8
			c-0.2,0.4-0.2,0.9,0.1,1.2C10,12.7,10.2,12.9,10.4,13z"/>
		<path fill="#FFFFFF" d="M11.8,14.6c-0.2,0.2-0.4,0.4-0.7,0.6c-0.8,0.5-1.7,0.8-2.6,1c-0.7,0.2-1.5,0.2-2.2,0.2c-0.5,0-0.9-0.1-1.3-0.2
			c-0.2-0.1-0.4-0.2-0.6-0.3c-0.3-0.3-0.3-0.6-0.1-0.9c0.2-0.3,0.5-0.5,0.9-0.7c0.9-0.5,1.9-0.7,2.9-0.8c0.7-0.1,1.3-0.1,2-0.1
			c0.2,0,0.4,0,0.5,0.1c-0.2,0-0.4,0.1-0.7,0c-0.5,0-0.9,0.1-1.3,0.1c-0.6,0.1-1.3,0.2-1.9,0.5c-0.4,0.2-0.8,0.3-1,0.6
			c-0.3,0.3-0.2,0.6,0.1,0.8c0.3,0.2,0.7,0.2,1,0.2C8.6,15.9,10.3,15.5,11.8,14.6C11.8,14.6,11.8,14.6,11.8,14.6z"/>
		<path fill="#FFFFFF" d="M6,12.3c0.2,0.2,0.5,0.3,0.7,0.4c0.1,0,0.2,0,0.1,0.1c0,0.1-0.1,0-0.2,0.1C6.4,13,6.3,13,6.1,13c-0.7,0-1.2-0.4-1.5-1.1
			c-0.1-0.2-0.1-0.3-0.2-0.5c0-0.2,0-0.2,0.2-0.2c0.3,0.1,0.6,0.1,0.9,0.1c0.6,0.1,1,0.5,1.1,1c0,0.1,0,0.1,0,0.2
			c-0.1,0.1-0.1,0-0.2,0C6.3,12.5,6.1,12.4,6,12.3z"/>
		<path fill="#FFFFFF" d="M2,15.1c-0.2,0-0.4-0.1-0.6-0.2c-0.1-0.1-0.2-0.1,0-0.2c0.2-0.1,0.4-0.3,0.5-0.5c0.5-0.7,1.2-0.7,1.9-0.4
			c0.1,0,0.1,0.1,0,0.1c-0.1,0.1-0.1,0.1-0.2,0.2C3.4,14.9,2.8,15.1,2,15.1z"/>
		<path fill="#FFFFFF" d="M0.8,17.7c-0.1,0-0.2,0.1-0.2,0c0-0.1,0-0.2,0.1-0.2c0.1-0.1,0.1-0.2,0.2-0.4c0.2-0.6,0.7-0.9,1.3-0.8
			c0.1,0,0.2,0,0.1,0.2c-0.1,0.2-0.1,0.5-0.2,0.7c-0.3,0.4-0.7,0.5-1.1,0.6C0.9,17.7,0.9,17.7,0.8,17.7z"/>
	</g>
</g>
</svg>